<?xml version="1.0" encoding="UTF-8" standalone="no"?>
<svg
   xmlns:dc="http://purl.org/dc/elements/1.1/"
   xmlns:cc="http://creativecommons.org/ns#"
   xmlns:rdf="http://www.w3.org/1999/02/22-rdf-syntax-ns#"
   xmlns:svg="http://www.w3.org/2000/svg"
   xmlns="http://www.w3.org/2000/svg"
   viewBox="0 0 1007.5 582.5"
   height="582.5"
   width="1007.5"
   xml:space="preserve"
   version="1.1"
   id="svg2"><metadata
     id="metadata8"><rdf:RDF><cc:Work
         rdf:about=""><dc:format>image/svg+xml</dc:format><dc:type
           rdf:resource="http://purl.org/dc/dcmitype/StillImage" /><dc:title></dc:title></cc:Work></rdf:RDF></metadata><defs
     id="defs6"><clipPath
       id="clipPath18"
       clipPathUnits="userSpaceOnUse"><path
         id="path20"
         d="m 0,10 0,4649 8051,0 L 8051,10 0,10 Z" /></clipPath></defs><g
     transform="matrix(1.25,0,0,-1.25,0,582.5)"
     id="g10"><g
       transform="scale(0.1,0.1)"
       id="g12"><g
         id="g14"><g
           clip-path="url(#clipPath18)"
           id="g16"><path
             id="path22"
             style="fill:#ffffff;fill-opacity:1;fill-rule:nonzero;stroke:none"
             d="m 0,9.98828 8060,0 0,4650.00002 -8060,0 L 0,9.98828 Z" /><path
             id="path24"
             style="fill:#231f20;fill-opacity:1;fill-rule:nonzero;stroke:none"
             d="m 1641.41,1280.93 0,202.11 208.24,0 0,-202.11 54.26,0 0,423.2 -54.26,0 0,-183.79 -208.24,0 0,183.79 -54.26,0 0,-423.2 54.26,0 z m 644.33,0 0,40 -197.34,0 0,164.14 162.11,0 0,38.63 -162.11,0 0,143.13 186.52,0 0,37.3 -238.75,0 0,-423.2 249.57,0 z m 173.64,423.2 -54.93,0 0,-423.2 54.93,0 0,423.2 z m 440.19,-423.2 46.13,0 0,423.2 -46.13,0 0,-276.72 c 0,-29.84 2.73,-66.44 5.43,-82.73 -5.43,16.95 -20.35,47.46 -37.97,73.94 l -189.92,285.51 -65.12,0 0,-423.2 45.43,0 0,307.93 c 0,29.14 -2.69,66.44 -6.09,82.07 6.09,-16.33 21.01,-46.84 38.67,-73.28 l 209.57,-316.72 z m 239.41,206.84 7.47,0 c 92.26,0 137.03,-145.83 169.57,-208.25 l 63.78,1.41 c -26.48,42.03 -73.28,198.71 -165.5,224.49 61.72,6.1 115.97,31.17 115.97,108.52 0,64.45 -43.39,93.59 -135.66,93.59 -56.95,0 -82.07,-2.69 -109.88,-4.06 l 0,-422.54 54.25,0 0,206.84 z m 134.3,124.14 c 0,-73.95 -57.62,-86.14 -122.07,-86.14 l -12.23,0 0,144.46 c 12.9,1.36 27.82,2.03 46.84,2.03 35.23,0 87.46,-5.43 87.46,-60.35 m 274.73,92.22 -54.96,0 0,-423.2 54.96,0 0,423.2 z m 460.54,-29.14 c -32.57,23.75 -78,35.94 -137.03,35.94 -137.69,0 -205.54,-92.93 -205.54,-223.83 0,-129.53 61.75,-215.04 196.05,-215.04 58.32,0 111.21,18.32 143.09,36.64 l -16.25,46.14 c -26.45,-19.65 -72.58,-39.38 -120.08,-39.38 -103.75,0 -147.19,78.71 -147.19,166.88 0,88.86 32.58,191.28 148.56,191.28 59.68,0 86.83,-17.61 111.91,-37.3 l 26.48,38.67 z m 151.92,-394.06 0,202.11 208.2,0 0,-202.11 54.3,0 0,423.2 -54.3,0 0,-183.79 -208.2,0 0,183.79 -54.3,0 0,-423.2 54.3,0 z m 617.65,0 0,202.11 208.25,0 0,-202.11 54.22,0 0,423.2 -54.22,0 0,-183.79 -208.25,0 0,183.79 -54.25,0 0,-423.2 54.25,0 z m 644.34,0 0,40 -197.38,0 0,164.14 162.11,0 0,38.63 -162.11,0 0,143.13 186.52,0 0,37.3 -238.75,0 0,-423.2 249.61,0 z m 173.59,423.2 -54.92,0 0,-423.2 54.92,0 0,423.2 z m 440.24,-423.2 46.09,0 0,423.2 -46.09,0 0,-276.72 c 0,-29.84 2.69,-66.44 5.39,-82.73 -5.39,16.95 -20.31,47.46 -37.97,73.94 l -189.92,285.51 -65.12,0 0,-423.2 45.43,0 0,307.93 c 0,29.14 -2.69,66.44 -6.05,82.07 6.05,-16.33 21.01,-46.84 38.67,-73.28 l 209.57,-316.72 z m 434.76,0 0,40 -197.38,0 0,164.14 162.07,0 0,38.63 -162.07,0 0,143.13 186.53,0 0,37.3 -238.75,0 0,-423.2 249.6,0" /><path
             id="path26"
             style="fill:#231f20;fill-opacity:1;fill-rule:nonzero;stroke:none"
             d="m 1782.73,945.109 0,162.381 -31.44,0 0,-159.49 c 0,-68.559 -28.59,-84.73 -65.27,-84.73 -37.07,0 -65.28,16.171 -65.28,84.73 l 0,159.49 -32.62,0 0,-162.381 c 0,-76.449 33.05,-105.55 97.9,-105.55 64.88,0 96.71,29.101 96.71,105.55 m 249.38,-96.8 27.38,0 0,259.181 -27.38,0 0,-169.451 c 0,-18.277 1.6,-40.699 3.2,-50.668 -3.2,10.359 -12.07,29.07 -22.54,45.277 l -112.81,174.842 -38.67,0 0,-259.181 26.99,0 0,188.561 c 0,17.89 -1.64,40.7 -3.63,50.27 3.63,-9.96 12.5,-28.67 22.97,-44.84 l 124.49,-193.991 z m 150.7,259.181 -32.65,0 0,-259.181 32.65,0 0,259.181 z M 2379.8,930.539 c -6.83,-17.027 -12.89,-38.199 -14.92,-52.34 -2.03,14.141 -6.83,32.031 -14.92,52.77 l -67.26,176.521 -35.43,0 104.33,-262.931 21.37,0 107.58,262.931 -30.24,0 -70.51,-176.951 z m 304.18,-82.23 0,24.492 -117.22,0 0,100.508 96.29,0 0,23.671 -96.29,0 0,87.66 110.78,0 0,22.85 -141.84,0 0,-259.181 148.28,0 z m 94.69,126.679 4.42,0 c 54.8,0 81.4,-89.289 100.74,-127.539 l 37.89,0.86 c -15.74,25.742 -43.56,121.679 -98.32,137.5 36.64,3.711 68.9,19.061 68.9,66.451 0,39.45 -25.82,57.3 -80.62,57.3 -33.83,0 -48.75,-1.68 -65.23,-2.5 l 0,-258.751 32.22,0 0,126.679 z m 79.77,76.022 c 0,-45.28 -34.26,-52.78 -72.5,-52.78 l -7.27,0 0,88.48 c 7.66,0.86 16.53,1.25 27.81,1.25 20.94,0 51.96,-3.32 51.96,-36.95 m 278.4,-128.319 c 0,56.438 -46.33,69.719 -69.69,76.829 -26.17,7.85 -55.63,16.6 -55.63,51.49 0,23.67 21.37,37.77 47.15,37.77 27.81,0 45.94,-13.28 55.2,-22.42 l 15.31,23.67 c -13.28,13.71 -38.67,21.6 -67.7,21.6 -47.1,0 -83,-24.06 -83,-68.51 0,-54.85 55.23,-69.811 72.93,-74.339 21.36,-5.429 51.6,-13.32 51.6,-53.59 0,-35.32 -28.21,-47.351 -51.17,-47.351 -33.44,0 -51.18,21.18 -61.25,33.211 l -19.73,-22 c 16.09,-18.711 39.06,-36.129 80.16,-36.129 48.75,0 85.82,30.308 85.82,79.769 m 111.6,184.799 -32.62,0 0,-259.181 32.62,0 0,259.181 z m 274.76,-24.06 0,24.06 -216.36,0 0,-24.06 90.66,0 0,-235.121 33.05,0 0,235.121 92.65,0 z m 195.43,-235.121 33.44,0 -98.32,261.251 -31.45,-2.07 -93.43,-259.181 30.19,0 30.63,88.48 96.29,0 32.65,-88.48 z m -93.08,191.061 c 4.02,12.07 8.86,28.67 10.86,41.13 2.03,-14.14 6.48,-28.24 11.29,-41.13 l 30.23,-80.979 -80.59,0 28.21,80.979 z m 69.29,120.04 c 0,10 -8.43,18.71 -18.51,18.71 -10.51,0 -18.56,-8.71 -18.56,-18.71 0,-9.97 8.05,-18.68 18.56,-18.68 10.08,0 18.51,8.71 18.51,18.68 m -74.53,0 c 0,10 -8.08,18.71 -18.55,18.71 -10.04,0 -18.52,-8.71 -18.52,-18.71 0,-9.97 8.48,-18.68 18.52,-18.68 10.47,0 18.55,8.71 18.55,18.68 m 352.15,-75.98 0,24.06 -216.37,0 0,-24.06 90.67,0 0,-235.121 33.01,0 0,235.121 92.69,0 z m 389.69,-102.192 c 0,86.372 -50.35,127.892 -130.16,127.892 -33.04,0 -33.04,-0.82 -66.05,-1.64 l 0,-259.181 c 15.27,0 39.45,-0.86 65.66,-0.86 53.99,0 130.55,22.852 130.55,133.789 m -35.86,-0.859 c 0,-88.859 -44.34,-110.899 -95.9,-110.899 -10.08,0 -20.16,0.43 -32.23,2.071 l 0,216.019 c 9.26,0.39 18.95,0.39 27.43,0.39 70.03,0 100.7,-36.95 100.7,-107.581 m 287.66,-35.27 0,162.381 -31.41,0 0,-159.49 c 0,-68.559 -28.59,-84.73 -65.27,-84.73 -37.07,0 -65.28,16.171 -65.28,84.73 l 0,159.49 -32.61,0 0,-162.381 c 0,-76.449 33,-105.55 97.89,-105.55 64.88,0 96.68,29.101 96.68,105.55 m -41.1,214.301 c 0,10 -8.47,18.71 -18.51,18.71 -10.47,0 -18.56,-8.71 -18.56,-18.71 0,-9.97 8.09,-18.68 18.56,-18.68 10.04,0 18.51,8.71 18.51,18.68 m -74.57,0 c 0,10 -8.05,18.71 -18.48,18.71 -10.07,0 -18.55,-8.71 -18.55,-18.71 0,-9.97 8.48,-18.68 18.55,-18.68 10.43,0 18.48,8.71 18.48,18.68 m 346.1,-236.719 c 0,56.438 -46.29,69.719 -69.65,76.829 -26.21,7.85 -55.63,16.6 -55.63,51.49 0,23.67 21.37,37.77 47.15,37.77 27.77,0 45.94,-13.28 55.2,-22.42 l 15.31,23.67 c -13.28,13.71 -38.67,21.6 -67.7,21.6 -47.15,0 -83.01,-24.06 -83.01,-68.51 0,-54.85 55.24,-69.811 72.93,-74.339 21.33,-5.429 51.61,-13.32 51.61,-53.59 0,-35.32 -28.25,-47.351 -51.21,-47.351 -33.4,0 -51.18,21.18 -61.22,33.211 l -19.76,-22 c 16.13,-18.711 39.06,-36.129 80.15,-36.129 48.79,0 85.83,30.308 85.83,79.769 m 226.83,0 c 0,56.438 -46.33,69.719 -69.69,76.829 -26.21,7.85 -55.58,16.6 -55.58,51.49 0,23.67 21.36,37.77 47.15,37.77 27.81,0 45.89,-13.28 55.15,-22.42 l 15.31,23.67 c -13.28,13.71 -38.67,21.6 -67.65,21.6 -47.15,0 -83.01,-24.06 -83.01,-68.51 0,-54.85 55.23,-69.811 72.97,-74.339 21.33,-5.429 51.52,-13.32 51.52,-53.59 0,-35.32 -28.16,-47.351 -51.17,-47.351 -33.44,0 -51.13,21.18 -61.25,33.211 l -19.73,-22 c 16.14,-18.711 39.11,-36.129 80.16,-36.129 48.79,0 85.82,30.308 85.82,79.769 m 219.18,-74.382 0,24.492 -117.23,0 0,100.508 96.29,0 0,23.671 -96.29,0 0,87.66 110.79,0 0,22.85 -141.8,0 0,-259.181 148.24,0 z m 211.09,0 0,24.492 -117.18,0 0,234.689 -31.45,0 0,-259.181 148.63,0 z m 248.21,132.929 c 0,86.372 -50.35,127.892 -130.12,127.892 -33.05,0 -33.05,-0.82 -66.09,-1.64 l 0,-259.181 c 15.35,0 39.49,-0.86 65.66,-0.86 53.98,0 130.55,22.852 130.55,133.789 m -35.82,-0.859 c 0,-88.859 -44.34,-110.899 -95.9,-110.899 -10.12,0 -20.16,0.43 -32.27,2.071 l 0,216.019 c 9.26,0.39 18.95,0.39 27.42,0.39 70.08,0 100.75,-36.95 100.75,-107.581 m 319.84,0 c 0,81.021 -50.74,131.251 -120.04,131.251 -69.29,0 -120.08,-50.23 -120.08,-131.251 0,-88.438 47.54,-137.457 120.08,-137.457 72.5,0 120.04,49.848 120.04,137.457 m -35.47,0 c 0,-68.508 -31.36,-113.399 -84.57,-113.399 -53.16,0 -84.61,44.891 -84.61,113.399 0,67.311 35.47,108.831 84.61,108.831 49.14,0 84.57,-41.52 84.57,-108.831 m 128.99,-5.391 4.41,0 c 54.81,0 81.41,-89.289 100.74,-127.539 l 37.85,0.86 c -15.74,25.742 -43.47,121.679 -98.32,137.5 36.68,3.711 68.91,19.061 68.91,66.451 0,39.45 -25.74,57.3 -80.59,57.3 -33.82,0 -48.75,-1.68 -65.27,-2.5 l 0,-258.751 32.27,0 0,126.679 z m 79.72,76.022 c 0,-45.28 -34.22,-52.78 -72.5,-52.78 l -7.22,0 0,88.48 c 7.65,0.86 16.48,1.25 27.77,1.25 20.94,0 51.95,-3.32 51.95,-36.95 m 264.34,33.63 0,22.85 -141.84,0 0,-259.181 31.02,0 0,125 96.33,0 0,23.671 -96.33,0 0,87.66 110.82,0" /><path
             id="path28"
             style="fill:#d3d2d2;fill-opacity:1;fill-rule:nonzero;stroke:none"
             d="m 1583.79,2450.93 0,-577.54 4887.62,0 0,1432.73 -4887.62,-855.19" /><path
             id="path30"
             style="fill:#176fc1;fill-opacity:1;fill-rule:nonzero;stroke:none"
             d="m 3571.02,3186.91 c 4.6,-0.98 9.92,0.86 14.45,2.96 2.5,-4.06 10.27,-2.34 13.79,-1.48 15.74,3.95 29.61,11.6 42.22,21.91 11.84,9.61 27.19,23.83 27.74,40.36 0.55,17.14 -25.35,9.45 -33.44,6.25 -9.49,-3.79 -18.2,-8.64 -26.64,-14.42 -8.09,-5.51 -15.12,-11.79 -22.23,-18.47 -2.81,-2.9 -5.5,-5.82 -8.08,-8.91 -2.19,-2.7 -9.96,-13.67 -3.99,-5.43 -2.81,-3.83 -15.19,-20.35 -3.82,-22.77 M 2400.08,3000.89 c 4.26,1.45 8.01,3.75 11.95,5.7 l 0.08,0 c 2.66,1.14 5.31,2.27 8.05,3.28 0.5,0.16 2.42,0.79 3.51,1.18 1.99,0.47 3.99,0.89 6.02,1.25 0.47,0.04 0.66,0.11 0.93,0.15 0.16,0 0.2,-0.04 0.4,-0.04 0.03,0 0.11,0 0.15,-0.04 0.24,-0.82 0.31,-1.67 0.9,-2.38 3.75,-4.49 12.19,-1.68 16.33,-0.12 17.65,6.57 37.3,21.8 46.37,38.56 0.31,0.59 0.62,1.13 0.93,1.72 1.64,3.05 7.19,12.38 2.85,16.09 -12.42,10.43 -33.9,1.92 -46.67,-3.47 -24.89,-10.51 -54.46,-28.21 -65.79,-53.79 -4.88,-10.94 7.54,-10.32 13.99,-8.09 m 3746.99,735.59 c 1.99,0.35 3.98,1.17 6.02,1.83 1.52,-1.56 4.14,-2.38 8.63,-1.91 20.23,2.22 39.3,16.72 53.2,30.27 8.52,8.28 28.91,31.84 10.59,40.78 -4.85,2.35 -14.38,-1.05 -18.87,-2.34 -5.47,-1.6 -10.59,-4.3 -15.66,-6.8 -20.51,-10.19 -36.92,-27.03 -49.73,-45.62 -4.84,-6.99 -5.74,-18.09 5.82,-16.21 m 62.93,59.68 c 2.34,0.75 1.45,0.32 0,0 m 942.34,-123.36 c -43.51,-25.46 -118.39,-76.91 -127.14,-83.04 -7.58,3.08 -8.68,5.7 -28.72,-4.42 26.14,26.64 34.61,49.81 16.53,52.11 -25.55,3.25 -80.74,-18.47 -109.46,-32.77 -49.96,-24.92 -99.45,-45.59 -148.9,-66.21 -37.77,-15.74 -79.69,-31.6 -118.2,-45.39 -19.57,-6.99 -56.18,-15.78 -61.25,-7.46 -5.04,8.4 67.65,46.91 105.42,69.29 10.08,6.02 40.43,20.98 30.24,39.96 -8.79,16.33 -48.24,-4.88 -58.98,-9.72 -93.29,-42.38 -116.41,-55.39 -210.43,-93.05 -29.57,-11.83 -91.06,-33.98 -121.8,-42.46 -37.62,-10.39 -17.66,6.21 -5.04,13.13 30.27,15.15 58.59,26.17 87.69,43 35.28,20.43 13.99,44.93 -7.57,37.46 -144.89,-50.03 -254.89,-100.62 -398.64,-151.29 -11.21,-3.94 -33.75,-9.49 -36.29,-5.27 -2.5,4.18 63.79,36.76 86.61,47.62 29.14,13.91 51.09,25.15 80,40.43 13.04,6.91 21.01,17.3 8.24,29.69 -13.01,12.57 -45.78,0.43 -59.81,-6.21 -91.6,-43.05 -327.65,-151.1 -452.54,-190.04 -8.39,-2.62 -42.42,-11.68 -44.84,-2 -1.33,5.43 40.43,27.7 59.42,40.16 40,26.33 98.98,52.85 124.53,95.7 2.69,4.61 5.78,10.67 2.73,15.86 -13.83,23.64 -142.66,-61.56 -161.87,-67.42 -6.76,-2.03 19.53,17.5 43.94,35.35 21.21,15.51 29.96,27.74 30.86,47.85 1.29,29.18 -27.73,11.21 -37.73,6.64 -107.86,-49.53 -208.48,-121.01 -306.53,-187.1 -36.25,-24.42 -72.15,-49.58 -107.69,-75.43 9.29,11.32 18.75,22.57 28.67,33.51 18.67,20.55 126.76,117.27 100.31,149.34 -3.51,4.33 -11.76,1.52 -15.62,0.04 -31.45,-12 -54.46,-37.5 -77.93,-60.63 -44.85,-44.1 -95.47,-84.06 -145.63,-121.91 -17.97,-13.56 -36.4,-26.29 -56.05,-37.15 -38.01,-21.06 11.25,36.76 28.24,54.49 43.44,45.43 93.75,89.96 137.03,135.55 8.56,9.02 19.57,44.49 -10.62,35.86 -63.83,-18.32 -116.64,-50.24 -159.42,-72.5 31.49,26.44 54.85,49.92 73.87,64.1 115,58.4 228.63,119.22 341.6,182.3 84.96,47.43 215.78,136.57 234.49,188.09 6.64,18.12 -1.44,39.02 -20.47,42.34 -87.46,15.16 -249.25,-121.52 -339.41,-198.71 -70.66,-60.51 -133.95,-110.43 -206.37,-169.06 -49.53,-24.41 -106.29,-53.24 -155.66,-77.7 -72.19,-35.66 -166.06,-74.49 -224.85,-96.29 -25.97,-9.64 -65.07,-18.71 -92.1,-24.53 -70.43,-15.19 -49.34,15.75 -15.55,39.77 53.55,38.01 61.56,47.66 32.81,37.85 -46.72,-15.94 -180.51,-103.48 -95.7,-117.34 47.42,-7.78 116.52,13.4 153.36,26.64 75.93,27.46 133.98,50.78 202.73,83.12 25.24,11.92 50.12,24.22 75.16,36.41 -46.84,-39.26 -94.3,-87.34 -138.95,-129.02 -26.29,-24.5 -10.82,-42.82 17.85,-21.29 71.68,53.67 152.35,90.86 234.07,125.89 -40.39,-41.17 -79.65,-79.02 -115.36,-124.17 -22.57,-28.6 -65.23,-92.54 -13.9,-82.74 48.08,9.14 90.94,44.88 128.9,73.56 39.42,29.8 43.48,32.81 80.51,65.58 -1.56,-1.8 19.38,14.42 17.78,12.62 -18.83,-21.13 -26.37,-31.49 -45.12,-52.66 -21.25,-23.94 -39.92,-50.04 -58.44,-76.29 -211.4,-163.63 -420.74,-341.01 -603.2,-532.77 -74.49,-78.28 -208.36,-237.27 -119.38,-255.63 44.18,-9.14 95,11.29 155.63,45.24 62.22,34.88 108.05,76.72 159.37,126.17 183.44,176.84 282.54,364.02 411.37,562.74 7.66,11.71 16.17,22.73 24.26,34.06 125.39,98.71 211.95,161.83 351.21,242.03 -9.69,-7.38 -15.55,-11.17 -25.23,-18.63 -26.1,-20.12 -97.66,-61.92 -66.76,-88.95 19.57,-17.15 70.08,6.56 86.33,21.13 -17.19,-28.2 13.67,-26.64 48.94,-20.97 86.02,13.67 157.66,51.6 233.75,84.02 46.88,19.96 93.48,40.35 140.74,59.26 -27.11,-21.02 -53.24,-47.31 -40,-63.17 23.71,-28.24 142.58,28.44 166.45,37.35 54.53,20.39 159.49,61.99 163.79,60.55 -17.46,-9.46 -50.71,-59.93 -3.6,-52.19 29.14,4.76 199.18,68.16 317.46,114.14 -30.86,-22.15 -54.06,-46.45 -53.36,-72.5 0.16,-3.4 1.88,-5.43 5.16,-6.17 24.34,-6.21 53.87,8.36 76.56,15.74 49.46,16.09 98.17,34.69 146.72,53.28 55.43,21.29 109.85,45.16 164.89,67.42 11.4,4.61 116.28,46.95 91.09,15.94 -13.87,-17.03 -29.69,-32.42 -43.79,-49.22 -16.8,-19.92 -0.63,-27.62 23.44,-20 18.36,5.82 27.46,9.34 45.7,18.67 10.23,5.28 -7.27,-1.6 1.95,-14.22 12.15,-16.72 41.18,-0.5 55.75,2.82 11.29,2.57 17.26,16.21 10.62,25.31 -2.03,2.81 -4.37,6.01 -10.16,7.42 36.65,34.61 75.08,66.56 114.61,99.14 44.18,36.49 46.53,61.17 -3.32,31.95 m -1774.02,-77.65 c 76.09,60.31 123.4,98.12 207.15,139.02 57.34,27.97 15.12,-19.26 -6.84,-38.44 -25.62,-22.46 -64.29,-48.79 -93.75,-66.52 -80.5,-48.63 -142.69,-81.99 -226.79,-128.48 38.71,31.45 81.25,63.48 120.23,94.42 m -565.7,-908.4 c -59.1,-77.81 -156.25,-175.74 -242.31,-235.86 -25,-17.5 -151.87,-96.68 -139.06,-29.96 10.39,54.22 143.05,195.43 245.7,293.32 121.41,115.78 236.6,219.18 379.34,330 -81.25,-119.22 -156.6,-242.89 -243.67,-357.5 m -430.12,380.78 c -4.84,11.88 -190.35,-87.26 -237.73,-111.44 -97.31,-49.69 -187.54,-97.39 -401.22,-212.97 86.49,118.4 192.82,262.3 271.53,354.49 43.87,27.85 87.46,56.01 131.29,83.12 57.42,35.59 103.86,62.39 160.08,99.93 35.78,23.94 120.58,75.11 114.68,117.3 -7.15,50.94 -83.04,14.57 -96.17,8.67 -57.38,-25.9 -115.82,-68.83 -163.32,-108.63 -65,-54.49 -130.94,-126.45 -185.59,-189.96 -65.46,-52.81 -172.61,-107.34 -245.54,-142.62 31.68,22.19 49.26,42.74 38.51,55.39 -17.46,20.55 -66.05,-10.82 -94.14,-25.58 -22.69,-11.96 -147.81,-85 -181.17,-69.18 -8.83,4.72 11.25,16.79 19.22,20.7 27.15,13.12 37.93,19.73 113.48,51.29 22.57,9.45 39.21,18.83 38.24,47.89 -0.67,17.11 -37.97,5.51 -61.02,-5.27 -24.14,-11.29 -63.12,-24.38 -110.66,-35.04 -38.56,-8.68 -97.77,-20.55 -132.19,-17.15 0.31,3.71 -5.19,18.2 -21.99,20.35 -15.43,1.99 -28.01,-4.41 -46.45,-17.11 -9.06,-6.25 -50.74,-43.79 -39.33,-59.06 -13.79,-14.38 -41.1,-31.13 -44.06,-32.54 -15.04,-6.99 -37.35,-25.35 -67.11,-33.79 -49.26,-13.98 -15.55,9.96 4.96,24.92 36.83,26.84 76.56,59.69 61.32,73.4 -15.23,13.67 -64.96,-13.55 -80.27,-21.29 -64.45,-32.58 -155.47,-83.01 -239.45,-116.68 -41.45,-16.64 -59.02,-24.18 -64.85,-18.47 -13,12.73 60.55,36.83 84.57,78.35 2.35,3.99 6.29,11.02 2.82,15.71 -17.7,23.44 -90.71,-20.39 -108.32,-28.64 -80.08,-37.53 -165.35,-81.36 -191.8,-91.17 -32.15,-11.87 -67.73,-24.29 -70.47,-18.9 -2.73,5.35 53.2,34.25 76.06,46.44 27.97,14.92 80.5,39.22 86.48,54.53 3.36,8.6 2.73,15.16 -2.38,18.48 -30.86,19.88 -156.1,-46.13 -265.16,-94.57 -30.08,-13.36 -67.26,-31.99 -94.06,-43.01 -30.59,-12.54 -65.04,-28.44 -73.28,-22.38 -3.24,2.38 24.33,17.81 32.89,22.07 49.57,24.53 129.65,62.89 143.16,78.98 4.14,4.93 8.36,18.44 3.13,24.73 -16.88,20.39 -65.08,-15.47 -109.22,-33.32 -54.02,-21.84 -107.54,-44.53 -161.52,-66.29 -49.15,-19.84 -110.24,-43.24 -164.5,-61.44 -27.61,-9.3 -65.7,-23.87 -73.43,-15.12 -6.25,7.07 73.67,41.29 101.09,61.25 9.65,6.99 40.19,29.14 31.72,44.72 -11.45,20.98 -240.16,-120 -253.36,-114.45 -20.04,8.44 136.13,91.56 139.3,94.3 8.51,7.3 32.07,18.94 26.05,32.11 -17.85,38.83 -125.59,-37.66 -386.41,-173.6 29.57,29.42 59.65,58.29 89.57,87.35 15.55,15.08 44.42,36.83 50.08,59.22 15.35,60.31 -105.19,-13.99 -116.87,-21.76 -71.84,-47.85 -140.43,-100.39 -212.78,-147.27 0.51,0.47 1.02,0.94 1.57,1.45 21.48,20.19 84.88,75.62 77.85,110.9 -8.05,40.39 -76.02,14.96 -137.97,-17.85 52.03,50.5 108.09,94.68 162.03,143.43 94.34,45.9 185.94,96.29 276.68,149.1 77.54,45.16 170.7,96.29 223.4,171.53 13.67,19.57 26.91,46.48 3.71,64.22 -25.82,19.72 -77.46,-11.96 -99.61,-23.87 -102.42,-55 -198.71,-138.09 -286.09,-213.75 -38.64,-33.48 -77,-67.23 -115.16,-101.17 -101.21,-50.35 -263.52,-124.96 -372.46,-156.64 -38.44,-11.21 -230.938,-50.75 -192.462,27.46 36.051,73.24 278.982,217.69 264.802,225.43 -6.25,3.4 -221.169,-122.23 -292.38,-210.55 -15.269,-18.94 -46.718,-53.05 -36.25,-80.47 15.121,-39.69 106.68,-31.95 139.22,-26.76 156.52,25.2 267.23,79.11 398.09,139.14 -65.36,-59.76 -129.65,-120.66 -192.5,-183.2 -25.08,-24.96 -11.57,-41.4 17.53,-21.13 28.87,20.12 58.36,41.52 90.43,56.25 6.64,3.05 92.54,31.76 78.36,3.36 -23.75,-47.66 -90.43,-93.91 -130.11,-129.38 -15.86,-14.18 -38.44,-53.94 1.21,-33.94 86.13,43.47 173.51,96.79 250.27,155.23 21.29,16.21 54.06,35.74 75.7,51.49 18.4,13.36 54.22,32.73 60.32,38.36 -122.23,-114.14 -233.13,-227.23 -333.44,-358.52 -106.21,-139.06 -205.59,-284.49 -319.26,-417.73 -28.089,-32.89 -79.261,-65.9 -76.171,-15.67 2.66,42.46 36.133,86.96 60.901,119.92 41.91,55.78 89.14,107.78 146.33,170.94 33.32,36.8 63.94,64.65 56.99,70.94 -5.24,4.76 -179.73,-164.96 -248.952,-247.7 -45.578,-54.57 -95.308,-153.43 -43.789,-188.12 51.571,-34.73 129.341,68.63 161.531,106.44 79.41,93.21 151.68,193.91 225.15,291.84 68.32,91.09 136.14,179.84 211.33,263.94 2.23,1.57 4.49,3.29 6.91,5.4 18.29,15.82 153.36,111.52 263.87,160.86 -24.76,-11.68 -62.58,-48.91 -76.83,-64.61 -18.48,-20.36 5.66,-35.59 44.06,-26.33 24.57,5.94 83.16,31.6 114.26,49.06 -1.84,-2.42 -3.48,-5.08 -4.69,-8.2 -2.19,-5.67 3.2,-20.67 20.62,-22.89 40.67,-5.16 162.66,47.3 206.18,65.19 49.25,20.31 97.07,40.24 145.5,60.28 4.3,1.75 12.78,7.42 23.83,11.91 -20.7,-13.44 -52.85,-39.69 -65.27,-60.98 -2.66,-4.53 -4.65,-12.46 -1.56,-17.65 26.87,-45.04 262.77,84.8 302.18,100.11 7.39,2.93 14.89,5.63 22.39,8.32 -43.44,-35.19 -87.5,-92.97 6.72,-75.07 64.96,12.38 132.85,48.36 191.79,76.64 16.92,8.08 33.71,16.56 50.59,24.84 -9.34,-8.87 -17.62,-18.63 -23.79,-29.77 -11.84,-21.36 5.47,-33.86 25.08,-30 83.12,16.61 193.67,75.98 271.05,110.39 21.92,9.73 45.12,19.89 66.88,30.08 -22.03,-13.32 -37.11,-25.5 -52.43,-40.7 -48.71,-48.28 15.71,-52.7 58.75,-28.63 -45.93,-49.69 23.36,-42.39 42.15,-27.74 15.67,12.19 51.33,35.75 84.1,62.66 57.66,47.38 65.36,57.93 83.99,74.73 23.67,3.2 53.01,10.31 70.9,13.98 43.75,9.18 95.39,25.55 138.44,37.3 -11.49,-6.36 -52.9,-26.21 -63.01,-33.08 -28.67,-19.53 -89.38,-66.6 -19.89,-76.92 33.32,-5 92.23,11.18 131.61,29.5 6.17,2.85 25.15,12.38 37.18,20.23 -8.79,-3.94 -12.5,-12.65 -11.83,-14.76 11.17,-37.35 107.42,13.43 113.63,16.44 76.25,36.76 129.3,63.52 198.87,105.59 -47.35,-58.99 -151.02,-201.21 -160.16,-213.05 -40.7,-52.73 -54.49,-70.94 -93.75,-125.86 -72.77,-46.76 -126.72,-84.45 -196.83,-132.93 -96.14,-66.41 -177.54,-132.15 -216.29,-166.64 -48.75,-43.4 -88.05,-81.21 -99.5,-133.79 -10.86,-50 74.65,-28.36 92.11,-24.18 62.03,14.85 127.97,56.99 176.33,97.03 110.9,91.88 188.87,220.32 273.09,335.12 70.15,44.18 141.21,86.84 213.12,128.28 155.16,89.45 481.41,260.74 478.44,267.93 m -97.46,274.3 c 36.21,20.27 93.79,36.37 32.23,-13.87 -23.99,-19.49 -53.95,-38.12 -80.67,-55.19 -50.7,-32.35 -94.26,-60.47 -150.82,-96.25 42.7,44.06 129.84,126.44 199.26,165.31 M 1806.6,3079.29 c 29.61,21.05 59.06,42.42 91.41,61.17 48.36,27.97 69.57,15 28.16,-20.94 -48.67,-42.22 -97.93,-73 -154.45,-106.01 -52.11,-30.39 -104.22,-59.49 -158.48,-85.59 61.72,52.85 127.5,104.45 193.36,151.37 m 1639.18,-668.4 c -50.94,-53.71 -117.46,-96.76 -190.08,-120.16 -56.25,-18.12 -16.72,29.93 7.03,55.04 30.16,31.96 71.41,67.74 104.97,95.98 79.92,67.19 165.35,128.36 253.2,184.8 -54.92,-75.27 -111.8,-148.9 -175.12,-215.66" /></g></g></g></g></svg>