<svg height="564.945pt" viewBox="0 0 824.776 564.945" width="824.776pt" xmlns="http://www.w3.org/2000/svg"><g fill="#006ab3"><path d="m618.96875 160.042969v74.292969c0 44.285156-33.175781 74.289062-74.101562 74.289062-40.921876 0-74.097657-30.003906-74.097657-74.289062v-74.292969h37.546875c0 13.503906.003906 68.300781.003906 71.0625 0 22.957031 16.363282 38.65625 36.546876 38.65625 20.1875 0 36.550781-15.699219 36.550781-38.65625v-71.0625zm0 0"/><path d="m168.152344 304.792969h-37.550782v-192.238281h37.550782v52.675781c10.789062-5.800781 23.246094-9.015625 36.550781-9.015625 40.921875 0 74.097656 30.007812 74.097656 74.289062v74.289063h-37.546875v-71.058594c0-22.957031-16.367187-38.65625-36.550781-38.65625-20.1875 0-36.550781 15.699219-36.550781 38.65625zm0 0"/><path d="m338.863281 304.792969h-37.554687v-192.238281h37.550781v52.675781c10.792969-5.800781 23.246094-9.015625 36.550781-9.015625 40.921875 0 74.101563 30.007812 74.101563 74.289062v74.289063h-37.550781v-71.058594c0-22.957031-16.363282-38.65625-36.550782-38.65625-20.183594 0-36.546875 15.699219-36.546875 38.65625zm0 0"/></g><path d="m193.824219 346.597656c-.519531-.535156-1.128907-.804687-1.828125-.804687-.730469 0-1.355469.269531-1.878906.804687-.523438.539063-.785157 1.15625-.785157 1.847656 0 .691407.261719 1.300782.785157 1.820313.523437.519531 1.148437.777344 1.878906.777344.699218 0 1.308594-.257813 1.828125-.777344.523437-.519531.785156-1.128906.785156-1.820313 0-.691406-.261719-1.308593-.785156-1.847656"/><path d="m254.585938 346.597656c-.523438-.535156-1.132813-.804687-1.828126-.804687-.730468 0-1.355468.269531-1.878906.804687-.523437.539063-.785156 1.15625-.785156 1.847656 0 .691407.261719 1.300782.785156 1.820313.523438.519531 1.148438.777344 1.878906.777344.695313 0 1.304688-.257813 1.828126-.777344.519531-.519531.785156-1.128906.785156-1.820313 0-.691406-.265625-1.308593-.785156-1.847656"/><path d="m394.894531 346.597656c-.523437-.535156-1.132812-.804687-1.828125-.804687-.730468 0-1.359375.269531-1.878906.804687-.527344.539063-.785156 1.15625-.785156 1.847656 0 .691407.257812 1.300782.785156 1.820313.519531.519531 1.148438.777344 1.878906.777344.695313 0 1.304688-.257813 1.828125-.777344.519531-.519531.78125-1.128906.78125-1.820313 0-.691406-.261719-1.308593-.78125-1.847656"/><path d="m150.917969 345.933594v14.085937h-16.039063v-14.085937h-4.175781v32.433594h4.175781v-15.492188h16.039063v15.492188h4.175781v-32.433594zm0 0"/><path d="m166.691406 367.660156h15.511719v-2.289062c0-1.28125-.148437-2.554688-.441406-3.820313-.296875-1.265625-.792969-2.390625-1.492188-3.378906-.695312-.984375-1.625-1.78125-2.792969-2.390625-1.167968-.601562-2.636718-.90625-4.414062-.90625-1.460938 0-2.828125.292969-4.097656.882812-1.273438.589844-2.378906 1.414063-3.316406 2.46875-.941407 1.058594-1.683594 2.320313-2.222657 3.792969-.539062 1.472657-.808593 3.109375-.808593 4.910157 0 3.984374.921874 7 2.765624 9.042968 1.847657 2.046875 4.582032 3.070313 8.203126 3.070313 1.878906 0 3.535156-.382813 4.960937-1.148438 1.429687-.757812 2.769531-1.867187 4.023437-3.324219l-1.621093-1.664062c-1.53125 1.355469-2.84375 2.234375-3.941407 2.652344-1.097656.414062-2.167968.621094-3.214843.621094-2.296875 0-4.019531-.734376-5.167969-2.207032-1.152344-1.472656-1.796875-3.578125-1.933594-6.3125m.101563-2.601562c.140625-1.003906.382812-1.964844.734375-2.882813.347656-.917969.789062-1.730469 1.332031-2.445312.539063-.707031 1.183594-1.269531 1.933594-1.6875.746093-.414063 1.589843-.625 2.53125-.625 1.425781 0 2.585937.625 3.472656 1.871093.886719 1.25 1.335937 2.910157 1.335937 4.992188v.777344zm0 0"/><path d="m194.113281 355.546875h-4.179687v22.816406h4.179687zm0 0"/><path d="m222.578125 378.367188v-14.347657c0-1.210937-.050781-2.371093-.15625-3.480469-.105469-1.109374-.417969-2.078124-.9375-2.910156-.527344-.832031-1.316406-1.496094-2.378906-2s-2.53125-.753906-4.414063-.753906c-1.183594 0-2.21875.179688-3.105468.542969-.890626.363281-1.640626.792969-2.246094 1.273437-.609375.488282-1.097656.972656-1.464844 1.457032-.367188.484374-.621094.851562-.757812 1.09375l-.519532-3.953126-3.921875.363282c.035157.175781.082031.480468.132813.910156.050781.433594.105468.925781.15625 1.484375.050781.550781.09375 1.125.128906 1.714844.035156.585937.054688 1.140625.054688 1.660156v16.945313h4.074218v-12.785157c0-1.039062.164063-2.03125.496094-2.964843.328125-.9375.78125-1.75 1.359375-2.441407.574219-.695312 1.25-1.238281 2.035156-1.636719.785157-.398437 1.644531-.597656 2.585938-.597656 1.046875 0 1.890625.128906 2.53125.386719.644531.261719 1.132812.652344 1.464843 1.171875.328126.519531.546876 1.160156.652344 1.921875.105469.761719.15625 1.628906.15625 2.597656v14.347657zm0 0"/><path d="m230.808594 378.367188h3.867187v-10.96875c0-.761719.027344-1.523438.078125-2.285157.050782-.765625.164063-1.488281.339844-2.183593.382812-1.417969.949219-2.609376 1.695312-3.5625.75-.949219 1.59375-1.425782 2.535157-1.425782 1.566406 0 2.402343.847656 2.503906 2.542969l3.398437-1.191406c-.035156-.765625-.191406-1.421875-.46875-1.976563-.28125-.554687-.628906-.996094-1.046874-1.324218-.417969-.332032-.878907-.574219-1.382813-.730469-.503906-.152344-.984375-.230469-1.4375-.230469-1.355469 0-2.542969.382812-3.550781 1.140625-1.011719.761719-1.863282 1.785156-2.558594 3.070313l-.523438-3.953126-3.917968.363282c.03125.175781.078125.480468.128906.910156.054688.433594.105469.925781.15625 1.484375.054688.550781.097656 1.125.132812 1.714844.03125.585937.050782 1.140625.050782 1.660156zm0 0"/><path d="m254.875 355.546875h-4.179688v22.816406h4.179688zm0 0"/><path d="m279.316406 373.21875c-1.285156 1.214844-2.402344 2.019531-3.339844 2.417969-.941406.398437-1.953124.597656-3.03125.597656-1.253906 0-2.308593-.242187-3.160156-.726563-.855468-.484374-1.539062-1.144531-2.0625-1.976562-.523437-.832031-.898437-1.785156-1.125-2.859375-.226562-1.070313-.339844-2.179687-.339844-3.324219 0-1.144531.132813-2.304687.394532-3.484375.261718-1.175781.667968-2.242187 1.226562-3.195312.554688-.953125 1.269532-1.730469 2.140625-2.339844.871094-.605469 1.898438-.90625 3.082031-.90625 1.324219 0 2.375.207031 3.160157.621094.785156.417969 1.488281.9375 2.117187 1.558593l1.984375-2.960937c-1.011719-.691406-2.113281-1.160156-3.316406-1.402344-1.203125-.242187-2.378906-.367187-3.527344-.367187-1.773437 0-3.386719.304687-4.832031.910156-1.445312.609375-2.660156 1.457031-3.65625 2.546875-.992188 1.09375-1.757812 2.390625-2.296875 3.898437-.539063 1.507813-.808594 3.164063-.808594 4.964844 0 3.878906.972657 6.824219 2.921875 8.835938 1.949219 2.007812 4.648438 3.011718 8.097656 3.011718.554688 0 1.175782-.058593 1.851563-.179687.679687-.121094 1.367187-.332031 2.066406-.625.695313-.292969 1.386719-.710937 2.0625-1.246094.679688-.539062 1.332031-1.222656 1.960938-2.054687zm0 0"/><path d="m290.8125 342.710938h-4.074219v35.652343h4.074219v-12.785156c0-1.035156.167969-2.027344.496094-2.960937.332031-.933594.785156-1.746094 1.359375-2.441407.574219-.695312 1.253906-1.238281 2.039062-1.636719.78125-.398437 1.640625-.597656 2.585938-.597656 1.042969 0 1.886719.128906 2.53125.386719.644531.261719 1.128906.652344 1.460937 1.171875.332032.519531.546875 1.160156.652344 1.921875.105469.765625.160156 1.628906.160156 2.601563v14.339843h4.070313v-14.339843c0-1.214844-.050781-2.375-.15625-3.484376-.101563-1.109374-.417969-2.078124-.9375-2.910156-.523438-.832031-1.316407-1.5-2.378907-2-1.0625-.503906-2.53125-.757812-4.414062-.757812-1.183594 0-2.210938.175781-3.078125.519531-.871094.351563-1.605469.757813-2.195313 1.222656-.59375.46875-1.074218.945313-1.4375 1.429688-.367187.488281-.617187.851562-.757812 1.09375zm0 0"/><path d="m336.269531 378.367188v-15.492188h16.035157v15.492188h4.175781v-32.433594h-4.175781v14.085937h-16.035157v-14.085937h-4.179687v32.433594zm0 0"/><path d="m368.128906 367.660156h15.515625v-2.289062c0-1.28125-.148437-2.554688-.445312-3.820313s-.792969-2.390625-1.488281-3.378906c-.695313-.984375-1.628907-1.78125-2.796876-2.390625-1.167968-.601562-2.636718-.90625-4.410156-.90625-1.464844 0-2.828125.292969-4.101562.882812-1.269532.589844-2.375 1.414063-3.316406 2.46875-.941407 1.058594-1.679688 2.320313-2.21875 3.792969-.542969 1.472657-.8125 3.109375-.8125 4.910157 0 3.984374.921874 7 2.769531 9.042968 1.84375 2.046875 4.578125 3.070313 8.203125 3.070313 1.875 0 3.53125-.382813 4.960937-1.148438 1.425781-.757812 2.765625-1.867187 4.019531-3.324219l-1.617187-1.664062c-1.53125 1.355469-2.847656 2.234375-3.945313 2.652344-1.09375.414062-2.167968.621094-3.210937.621094-2.296875 0-4.023437-.734376-5.171875-2.207032s-1.792969-3.578125-1.933594-6.3125m.105469-2.601562c.140625-1.003906.382813-1.964844.730469-2.882813s.792968-1.730469 1.332031-2.445312c.539063-.707031 1.183594-1.269531 1.933594-1.6875.75-.414063 1.59375-.625 2.535156-.625 1.425781 0 2.585937.625 3.472656 1.871093.886719 1.25 1.332031 2.910157 1.332031 4.992188v.777344zm0 0"/><path d="m395.179688 355.546875h-4.175782v22.816406h4.175782zm0 0"/><path d="m423.542969 378.367188v-14.347657c0-1.210937-.054688-2.371093-.15625-3.480469-.105469-1.109374-.417969-2.078124-.941407-2.910156-.523437-.832031-1.316406-1.496094-2.375-2-1.0625-.503906-2.535156-.753906-4.414062-.753906-1.183594 0-2.21875.179688-3.109375.542969-.886719.363281-1.636719.792969-2.246094 1.273437-.609375.488282-1.097656.972656-1.460937 1.457032-.367188.484374-.621094.851562-.757813 1.09375l-.523437-3.953126-3.917969.363282c.035156.175781.078125.480468.132813.910156.050781.433594.101562.925781.15625 1.484375.050781.550781.09375 1.125.128906 1.714844.035156.585937.050781 1.140625.050781 1.660156v16.945313h4.078125v-12.785157c0-1.039062.164062-2.03125.496094-2.964843.328125-.9375.78125-1.75 1.359375-2.441407.570312-.695312 1.25-1.238281 2.03125-1.636719.785156-.398437 1.648437-.597656 2.585937-.597656 1.046875 0 1.894532.128906 2.535156.386719.644532.261719 1.128907.652344 1.460938 1.171875s.550781 1.160156.65625 1.921875c.101562.761719.15625 1.628906.15625 2.597656v14.347657zm0 0"/><path d="m434.328125 367.660156h15.511719v-2.289062c0-1.28125-.148438-2.554688-.445313-3.820313-.292969-1.265625-.789062-2.390625-1.488281-3.378906-.695312-.984375-1.625-1.78125-2.792969-2.390625-1.167969-.601562-2.636719-.90625-4.414062-.90625-1.460938 0-2.828125.292969-4.101563.882812-1.269531.589844-2.375 1.414063-3.3125 2.46875-.941406 1.058594-1.683594 2.320313-2.222656 3.792969-.539062 1.472657-.808594 3.109375-.808594 4.910157 0 3.984374.921875 7 2.769532 9.042968 1.84375 2.046875 4.578124 3.070313 8.199218 3.070313 1.878906 0 3.535156-.382813 4.960938-1.148438 1.429687-.757812 2.769531-1.867187 4.023437-3.324219l-1.617187-1.664062c-1.535156 1.355469-2.847656 2.234375-3.945313 2.652344-1.097656.414062-2.167969.621094-3.214843.621094-2.296876 0-4.019532-.734376-5.167969-2.207032-1.152344-1.472656-1.792969-3.578125-1.933594-6.3125m.101563-2.601562c.140624-1.003906.382812-1.964844.730468-2.882813.351563-.917969.796875-1.730469 1.335938-2.445312.539062-.707031 1.183594-1.269531 1.933594-1.6875.746093-.414063 1.589843-.625 2.53125-.625 1.425781 0 2.585937.625 3.472656 1.871093.886718 1.25 1.332031 2.910157 1.332031 4.992188v.777344zm0 0"/><path d="m155.789062 401.355469h-4.074218v19.957031c0 2.148438-.21875 3.90625-.652344 5.273438-.4375 1.371093-1.039062 2.453124-1.804688 3.246093-.765624.800781-1.664062 1.347657-2.6875 1.640625-1.027343.296875-2.132812.441406-3.316406.441406-1.21875 0-2.34375-.144531-3.371094-.441406-1.027343-.292968-1.914062-.839844-2.664062-1.640625-.746094-.792969-1.339844-1.875-1.773438-3.246093-.4375-1.367188-.652343-3.125-.652343-5.273438v-19.957031h-4.230469v20.320312c0 4.78125 1.058594 8.175781 3.183594 10.1875 2.121094 2.007813 5.292968 3.011719 9.507812 3.011719 4.210938 0 7.355469-1.003906 9.425782-3.011719 2.070312-2.011719 3.109374-5.40625 3.109374-10.1875zm28.097657 32.429687v-14.34375c0-1.210937-.050781-2.371094-.152344-3.484375-.105469-1.105469-.417969-2.078125-.941406-2.910156-.523438-.832031-1.316407-1.496094-2.375-2-1.0625-.503906-2.535157-.753906-4.417969-.753906-1.179688 0-2.21875.183593-3.105469.546875-.890625.363281-1.640625.785156-2.246093 1.273437-.609376.484375-1.097657.96875-1.464844 1.453125-.363282.488282-.617188.851563-.753906 1.09375l-.523438-3.953125-3.917969.367188c.035157.171875.078125.476562.128907.910156.054687.433594.105468.925781.160156 1.480469.050781.554687.09375 1.125.128906 1.714844.035156.589843.050781 1.140624.050781 1.664062v16.941406h4.074219v-12.785156c0-1.039062.164062-2.027344.496094-2.960938.332031-.9375.785156-1.75 1.359375-2.445312.574219-.691406 1.253906-1.234375 2.035156-1.636719.785156-.394531 1.648437-.597656 2.585937-.597656 1.046876 0 1.890626.128906 2.535157.390625.644531.257812 1.128906.648438 1.460937 1.167969.332032.519531.546875 1.160156.652344 1.925781.105469.761719.15625 1.625.15625 2.597656v14.34375zm12.246093-33.859375c-.523437-.539062-1.132812-.804687-1.828124-.804687-.730469 0-1.359376.265625-1.882813.804687-.519531.535157-.78125 1.152344-.78125 1.84375 0 .695313.261719 1.300781.78125 1.820313.523437.519531 1.152344.78125 1.882813.78125.695312 0 1.304687-.261719 1.828124-.78125.523438-.519532.78125-1.125.78125-1.820313 0-.691406-.257812-1.308593-.78125-1.84375m.207032 11.042969h-4.175782v22.816406h4.175782zm10.210937 0h-4.488281l9.347656 23.285156h3.289063l9.558593-23.285156h-3.761718l-6.054688 16.007812c-.59375 1.59375-.925781 2.789063-.996094 3.585938-.070312-.378906-.171874-.882812-.3125-1.507812-.140624-.621094-.382812-1.382813-.730468-2.285157zm40.269531 12.109375v-2.285156c0-1.28125-.144531-2.554688-.441406-3.820313s-.792968-2.390625-1.488281-3.378906c-.699219-.988281-1.628906-1.785156-2.792969-2.390625-1.171875-.605469-2.640625-.910156-4.414062-.910156-1.464844 0-2.832032.296875-4.101563.882812-1.273437.589844-2.378906 1.414063-3.316406 2.46875-.941406 1.058594-1.683594 2.324219-2.222656 3.796875-.539063 1.472656-.804688 3.109375-.804688 4.910156 0 3.984376.917969 7 2.765625 9.042969 1.84375 2.046875 4.578125 3.066407 8.199219 3.066407 1.882813 0 3.535156-.378907 4.960937-1.140626 1.429688-.765624 2.769532-1.871093 4.023438-3.328124l-1.617188-1.664063c-1.535156 1.351563-2.847656 2.234375-3.945312 2.652344-1.097656.414062-2.167969.621093-3.210938.621093-2.300781 0-4.023437-.734374-5.171874-2.207031-1.152344-1.476562-1.792969-3.578125-1.933594-6.316406zm-5.40625-8.367187c.890626 1.246093 1.335938 2.910156 1.335938 4.992187v.777344h-11.335938c.140626-1.003907.382813-1.964844.730469-2.886719.347657-.917969.792969-1.730469 1.332031-2.441406.539063-.710938 1.183594-1.273438 1.933594-1.6875.746094-.417969 1.589844-.625 2.53125-.625 1.429688 0 2.585938.625 3.472656 1.871094m12.617188 19.074218h3.863281v-10.96875c0-.757812.027344-1.523437.078125-2.285156.054688-.761719.164063-1.488281.339844-2.183594.382812-1.417968.949219-2.605468 1.695312-3.558594.75-.953124 1.59375-1.429687 2.535157-1.429687 1.566406 0 2.402343.851563 2.507812 2.546875l3.394531-1.195312c-.035156-.761719-.191406-1.421876-.46875-1.972657-.28125-.554687-.628906-.996093-1.046874-1.328125-.417969-.328125-.878907-.570312-1.382813-.726562s-.984375-.234375-1.4375-.234375c-1.355469 0-2.542969.382812-3.550781 1.144531-1.007813.761719-1.863282 1.78125-2.558594 3.066406l-.523438-3.953125-3.917968.367188c.035156.171875.078125.476562.132812.910156.050782.433594.101563.925781.15625 1.480469.050782.554687.09375 1.125.128906 1.714844.035157.589843.054688 1.140624.054688 1.664062zm33.609375-9.433594c-.433594-.777343-.992187-1.445312-1.671875-2-.675781-.554687-1.417969-.988281-2.21875-1.300781-.800781-.308593-1.585938-.570312-2.351562-.777343-1.425782-.382813-2.585938-.917969-3.472657-1.613282-.886719-.691406-1.332031-1.628906-1.332031-2.804687 0-.898438.390625-1.65625 1.175781-2.261719.785157-.605469 1.785157-.910156 3.003907-.910156 1.289062 0 2.289062.242187 3.003906.726562.714844.488282 1.328125.988282 1.851562 1.507813l1.984375-2.546875c-.558593-.484375-1.367187-.949219-2.429687-1.402344-1.0625-.449219-2.480469-.675781-4.253906-.675781-1.078126 0-2.109376.132812-3.082032.390625-.976562.261718-1.835937.648437-2.585937 1.167968-.75.519532-1.351563 1.179688-1.800781 1.976563-.453126.796875-.679688 1.714844-.679688 2.753906 0 1.214844.210938 2.226563.628906 3.042969.414063.8125.953125 1.488281 1.617188 2.023438.660156.539062 1.375.953124 2.140625 1.25.765625.292968 1.496093.542968 2.195312.753906 1.460938.414062 2.636719.925781 3.527344 1.53125.886719.605468 1.328125 1.621094 1.328125 3.039062 0 1.214844-.355469 2.140625-1.070312 2.78125-.710938.644532-1.734376.964844-3.054688.964844-.695312 0-1.351562-.113281-1.957031-.34375-.609375-.21875-1.179688-.507812-1.699219-.855469-.523438-.34375-.984375-.699219-1.386719-1.0625-.398437-.367187-.71875-.703125-.964843-1.015625l-1.984376 3.171875c2.195313 1.734375 4.839844 2.597657 7.9375 2.597657 1.152344 0 2.230469-.15625 3.242188-.46875 1.007812-.308594 1.878906-.769532 2.613281-1.375.726563-.609376 1.3125-1.359376 1.746094-2.261719.4375-.902344.652344-1.9375.652344-3.117188 0-1.144531-.214844-2.105469-.652344-2.886719m12.300781-24.425781c-.523437-.539062-1.132812-.804687-1.828125-.804687-.730469 0-1.359375.265625-1.878906.804687-.523437.535157-.785156 1.152344-.785156 1.84375 0 .695313.261719 1.300781.785156 1.820313.519531.519531 1.148437.78125 1.878906.78125.695313 0 1.304688-.261719 1.828125-.78125.519532-.519532.78125-1.125.78125-1.820313 0-.691406-.261718-1.308593-.78125-1.84375m.207032 11.042969h-4.179688v22.816406h4.179688zm20.214843 19.960938c-.488281.238281-.933593.421874-1.332031.542968s-.84375.179688-1.332031.179688c-.28125 0-.609375-.050782-.992188-.152344-.382812-.105469-.679687-.242188-.886719-.417969-.488281-.378906-.777343-.847656-.863281-1.402343-.085937-.554688-.128906-1.421876-.128906-2.597657v-13.515625h5.429687v-2.597656h-5.429687v-6.703125l-3.972656.933594v5.769531h-3.863281v2.597656h3.863281v13.878906c0 1.175782.046875 2.191407.132812 3.039063.085938.847656.355469 1.566406.808594 2.160156.488281.65625 1.125 1.125 1.90625 1.398438.785156.277343 1.609375.417969 2.480469.417969.90625 0 1.804687-.140626 2.691406-.417969.886719-.273438 1.644531-.65625 2.269531-1.140625zm26.328125.414062c-.628906.171875-1.238281.257812-1.832031.257812-.488281 0-.878906-.164062-1.175781-.492187s-.441406-1.015625-.441406-2.054687v-12.058594c0-.414063-.011719-.84375-.027344-1.296875-.015625-.449219-.078125-.902344-.183594-1.351563-.105469-.449218-.28125-.882812-.519531-1.300781-.246094-.414063-.574219-.777344-.992188-1.089844-.90625-.691406-1.90625-1.144531-3.007812-1.351562-1.09375-.207031-2.148438-.3125-3.15625-.3125-.941407 0-1.871094.085937-2.796875.261719-.921875.171874-1.765625.46875-2.53125.882812s-1.417969.960938-1.960938 1.636719c-.539062.675781-.894531 1.53125-1.070312 2.574219l3.1875 1.039062c.105468-.519531.242187-1.007812.417968-1.457031.171876-.449219.441407-.855469.808594-1.222657.367188-.363281.84375-.648437 1.4375-.855468.589844-.207032 1.339844-.3125 2.246094-.3125.484375 0 .957031.042968 1.410156.128906.453125.089844.867188.234375 1.253906.441406.589844.3125 1.011719.710938 1.253907 1.195313.242187.488281.363281 1.179687.363281 2.082031v3.949219c-1.183594 0-2.203125.019531-3.054688.050781-.851562.035156-1.679687.105469-2.480468.210938-1.117188.171874-2.140625.449218-3.082032.828124-.941406.382813-1.757812.875-2.457031 1.480469-.695312.609375-1.242187 1.324219-1.640625 2.160157-.402344.832031-.605468 1.765624-.605468 2.804687 0 1.042969.191406 1.960937.578124 2.757813.382813.796874.875 1.453124 1.488282 1.972656.609375.515625 1.296875.910156 2.0625 1.167968.765625.261719 1.546875.390626 2.351562.390626 1.878906 0 3.402344-.417969 4.570313-1.246094 1.164062-.832032 1.976562-1.785156 2.429687-2.859375.101563 1.039062.457032 1.941406 1.066406 2.703125.609376.761718 1.507813 1.144531 2.691407 1.144531.699219 0 1.367187-.070313 2.011719-.210937.644531-.136719 1.105468-.242188 1.386718-.308594zm-7.339844-6.417969c-.019531.675781-.0625 1.339844-.132812 2-.101562.867188-.355469 1.601563-.757812 2.210938-.398438.601562-.859376 1.089843-1.382813 1.453125-.523437.363281-1.0625.621094-1.621094.777344-.554687.160156-1.027343.234374-1.40625.234374-.523437 0-1.03125-.070312-1.515625-.207031-.492187-.136719-.914062-.363281-1.28125-.675781-.367187-.3125-.664062-.71875-.886718-1.222656-.230469-.5-.339844-1.132813-.339844-1.894532 0-.761718.15625-1.402343.46875-1.921874.3125-.523438.699218-.945313 1.152344-1.273438.449218-.332031.917968-.582031 1.40625-.753906.488281-.175782.90625-.296875 1.253906-.363282.417968-.105468.878906-.175781 1.386718-.210937.503907-.03125.992188-.066406 1.460938-.101563.46875-.035156.90625-.054687 1.304688-.054687h.914062c0 .660156-.007812 1.328125-.023438 2.003906m2.507813-23.441406c-.472656-.464844-1.039063-.703125-1.699219-.703125-.699218 0-1.273437.238281-1.726562.703125-.453125.46875-.675782 1.011719-.675782 1.636719s.222657 1.167968.675782 1.636718 1.027344.703126 1.726562.703126c.660156 0 1.226563-.234376 1.699219-.703126.46875-.46875.703125-1.011718.703125-1.636718s-.234375-1.167969-.703125-1.636719m-9.640625 0c-.449219-.464844-1.023438-.703125-1.722656-.703125-.660156 0-1.226563.238281-1.699219.703125-.46875.46875-.703125 1.011719-.703125 1.636719s.234375 1.167968.703125 1.636718c.472656.46875 1.039063.703126 1.699219.703126.699218 0 1.273437-.234376 1.722656-.703126.453125-.46875.679688-1.011718.679688-1.636718s-.226563-1.167969-.679688-1.636719m30.976562 29.445313c-.488281.238281-.933593.421874-1.332031.542968-.402343.121094-.847656.179688-1.332031.179688-.28125 0-.609375-.050782-.992188-.152344-.382812-.105469-.679687-.242188-.890624-.417969-.488282-.378906-.777344-.847656-.859376-1.402343-.089843-.554688-.132812-1.421876-.132812-2.597657v-13.515625h5.433594v-2.597656h-5.433594v-6.703125l-3.96875.933594v5.769531h-3.863281v2.597656h3.863281v13.878906c0 1.175782.042969 2.191407.128906 3.039063.089844.847656.359375 1.566406.8125 2.160156.484375.65625 1.121094 1.125 1.90625 1.398438.785156.277343 1.609375.417969 2.480469.417969.90625 0 1.800781-.140626 2.6875-.417969.890625-.273438 1.648437-.65625 2.273437-1.140625zm46.878907-21.277344c-.785157-2.007813-1.910157-3.671875-3.371094-4.988282-1.460937-1.316406-3.238281-2.304687-5.328125-2.964843-2.089844-.65625-4.421875-.984375-7-.984375-1.078125 0-1.929688.007812-2.558594.023437-.625.019531-1.199218.035157-1.722656.054688-.523438.015625-1.097656.03125-1.722656.050781-.628906.015625-1.480469.042969-2.5625.074219v32.867187c1.011718 0 2.253906.015625 3.738281.054688 1.476563.03125 3.070313.050781 4.777344.050781 1.738281 0 3.605469-.226563 5.589843-.675781 1.984376-.449219 3.8125-1.285156 5.484376-2.496094 1.671874-1.210938 3.0625-2.910156 4.179687-5.09375 1.113281-2.183594 1.667969-5.003906 1.667969-8.472656 0-2.699219-.390625-5.488282-1.171875-7.5m-4.46875 14.464844c-.660157 1.800781-1.566407 3.222656-2.714844 4.261718-1.148437 1.039063-2.472656 1.757813-3.972656 2.15625-1.496094.398438-3.078125.597656-4.75.597656-.664063 0-1.324219-.015624-1.984375-.050781-.660156-.03125-1.394532-.101562-2.195313-.207031v-27.460938c.59375-.03125 1.191407-.050781 1.800781-.050781h1.75c4.5625 0 7.878907 1.136719 9.953126 3.402344 2.070312 2.273437 3.105468 6.058594 3.105468 10.492187 0 2.773438-.328125 5.058594-.992187 6.859376m12.796875-13.148438v14.34375c0 1.214844.054687 2.375.15625 3.480469.105468 1.113281.417968 2.082031.941406 2.914062s1.3125 1.496094 2.375 2c1.0625.5 2.535156.753907 4.414062.753907 1.183594 0 2.21875-.179688 3.109376-.546876.886718-.363281 1.636718-.789062 2.246093-1.269531.609375-.488281 1.085938-.972656 1.4375-1.457031.34375-.484375.605469-.851562.78125-1.09375l.519531 3.949219 3.921876-.359375c-.035157-.175782-.078126-.480469-.132813-.914063-.050781-.429687-.101563-.914062-.15625-1.453125-.050781-.535156-.097656-1.109375-.128906-1.714844-.035157-.605468-.054688-1.167968-.054688-1.6875v-16.945312h-4.074219v12.785156c0 1.039063-.164062 2.027344-.496093 2.964844-.332031.933594-.78125 1.75-1.355469 2.441406s-1.253906 1.238282-2.035156 1.636719c-.789063.398437-1.648438.597656-2.589844.597656-1.042969 0-1.886719-.128906-2.535156-.390625-.640625-.257812-1.128906-.648437-1.457032-1.171875-.332031-.515625-.550781-1.15625-.65625-1.917969-.101562-.761718-.15625-1.628906-.15625-2.601562v-14.34375zm16.21875-9.484375c-.46875-.464844-1.039063-.703125-1.699219-.703125-.695313 0-1.269531.238281-1.722656.703125-.453125.46875-.675781 1.011719-.675781 1.636719s.222656 1.167968.675781 1.636718 1.027343.703126 1.722656.703126c.660156 0 1.230469-.234376 1.699219-.703126s.707031-1.011718.707031-1.636718-.238281-1.167969-.707031-1.636719m-9.636719 0c-.453125-.464844-1.027344-.703125-1.722656-.703125-.664063 0-1.230469.238281-1.699219.703125-.46875.46875-.703125 1.011719-.703125 1.636719s.234375 1.167968.703125 1.636718 1.035156.703126 1.699219.703126c.695312 0 1.269531-.234376 1.722656-.703126s.679687-1.011718.679687-1.636718-.226562-1.167969-.679687-1.636719m35.285156 22.867187c-.4375-.777343-.996093-1.445312-1.675781-2-.675781-.554687-1.417969-.988281-2.21875-1.300781-.800781-.308593-1.585938-.570312-2.351562-.777343-1.425782-.382813-2.582032-.917969-3.472657-1.613282-.886719-.691406-1.332031-1.628906-1.332031-2.804687 0-.898438.390625-1.65625 1.175781-2.261719.785157-.605469 1.785157-.910156 3.003907-.910156 1.289062 0 2.289062.242187 3.003906.726562.714844.488282 1.332031.988282 1.851562 1.507813l1.988282-2.546875c-.558594-.484375-1.371094-.949219-2.429688-1.402344-1.0625-.449219-2.480469-.675781-4.257812-.675781-1.078126 0-2.109376.132812-3.082032.390625-.976562.261718-1.835937.648437-2.585937 1.167968-.75.519532-1.351563 1.179688-1.800781 1.976563-.453126.796875-.679688 1.714844-.679688 2.753906 0 1.214844.210938 2.226563.628906 3.042969.417969.8125.953125 1.488281 1.617188 2.023438.660156.539062 1.375.953124 2.140625 1.25.765625.292968 1.496093.542968 2.195312.753906 1.464844.414062 2.636719.925781 3.527344 1.53125.886719.605468 1.328125 1.621094 1.328125 3.039062 0 1.214844-.355469 2.140625-1.066406 2.78125-.714844.644532-1.738282.964844-3.058594.964844-.695312 0-1.351562-.113281-1.957031-.34375-.609375-.21875-1.179688-.507812-1.699219-.855469-.523438-.34375-.984375-.699219-1.386719-1.0625-.394531-.367187-.71875-.703125-.964843-1.015625l-1.984376 3.171875c2.195313 1.734375 4.839844 2.597657 7.9375 2.597657 1.152344 0 2.230469-.15625 3.242188-.46875 1.007812-.308594 1.878906-.769532 2.613281-1.375.726563-.609376 1.3125-1.359376 1.75-2.261719.433594-.902344.648438-1.9375.648438-3.117188 0-1.144531-.214844-2.105469-.648438-2.886719m21.359375 0c-.433594-.777343-.992187-1.445312-1.671875-2-.679687-.554687-1.417969-.988281-2.21875-1.300781-.800781-.308593-1.585937-.570312-2.351562-.777343-1.429688-.382813-2.585938-.917969-3.472657-1.613282-.886718-.691406-1.332031-1.628906-1.332031-2.804687 0-.898438.390625-1.65625 1.175781-2.261719.78125-.605469 1.78125-.910156 3-.910156 1.289063 0 2.289063.242187 3.003907.726562.714843.488282 1.332031.988282 1.855469 1.507813l1.988281-2.546875c-.558594-.484375-1.367188-.949219-2.429688-1.402344-1.0625-.449219-2.480469-.675781-4.257812-.675781-1.082031 0-2.105469.132812-3.082031.390625-.976563.261718-1.839844.648437-2.585938 1.167968-.75.519532-1.347656 1.179688-1.800781 1.976563s-.679688 1.714844-.679688 2.753906c0 1.214844.207031 2.226563.625 3.042969.417969.8125.960938 1.488281 1.621094 2.023438.660156.539062 1.375.953124 2.140625 1.25.765625.292968 1.5.542968 2.195312.753906 1.460938.414062 2.636719.925781 3.523438 1.53125.886719.605468 1.332031 1.621094 1.332031 3.039062 0 1.214844-.355469 2.140625-1.070312 2.78125-.714844.644532-1.730469.964844-3.054688.964844-.699219 0-1.347656-.113281-1.960937-.34375-.609375-.21875-1.171875-.507812-1.699219-.855469-.519531-.34375-.980469-.699219-1.382813-1.0625-.398437-.367187-.71875-.703125-.964843-1.015625l-1.984375 3.171875c2.191406 1.734375 4.839844 2.597657 7.941406 2.597657 1.144531 0 2.226562-.15625 3.238281-.46875 1.007813-.308594 1.878907-.769532 2.609375-1.375.730469-.609376 1.316406-1.359376 1.75-2.261719.433594-.902344.652344-1.9375.652344-3.117188 0-1.144531-.21875-2.105469-.652344-2.886719m25.878906-1.273437v-2.285156c0-1.28125-.148437-2.554688-.441406-3.820313-.296875-1.265625-.792968-2.390625-1.488281-3.378906-.699219-.988281-1.628906-1.785156-2.796875-2.390625-1.164062-.605469-2.636719-.910156-4.414062-.910156-1.460938 0-2.828126.296875-4.097657.882812-1.273437.589844-2.375 1.414063-3.316406 2.46875-.941406 1.058594-1.679687 2.324219-2.222656 3.796875-.539063 1.472656-.808594 3.109375-.808594 4.910156 0 3.984376.921875 7 2.769531 9.042969 1.84375 2.046875 4.578125 3.066407 8.203125 3.066407 1.875 0 3.527344-.378907 4.960938-1.140626 1.425781-.765624 2.765625-1.871093 4.019531-3.328124l-1.621094-1.664063c-1.53125 1.351563-2.84375 2.234375-3.941406 2.652344-1.097656.414062-2.167969.621093-3.210938.621093-2.300781 0-4.023437-.734374-5.171874-2.207031-1.148438-1.476562-1.796876-3.578125-1.933594-6.316406zm-5.402343-8.367187c.886719 1.246093 1.328125 2.910156 1.328125 4.992187v.777344h-11.332032c.136719-1.003907.382813-1.964844.730469-2.886719.347657-.917969.792969-1.730469 1.332031-2.441406.539063-.710938 1.183594-1.273438 1.929688-1.6875.75-.417969 1.597656-.625 2.535156-.625 1.425782 0 2.585938.625 3.476563 1.871094m16.894531-15.488282h-4.128906v34.5625h4.128906zm23.761719 27.753906c-.523438 1.246094-1.160157 2.210938-1.90625 2.882813-.75.675781-1.53125 1.128906-2.351563 1.351563-.816406.226562-1.507812.339843-2.0625.339843-1.042968 0-1.949218-.234375-2.71875-.699219-.765625-.46875-1.398437-1.117187-1.90625-1.953124-.503906-.832032-.878906-1.816407-1.121094-2.960938-.242187-1.144531-.363281-2.371094-.363281-3.691406 0-1.347656.15625-2.585938.46875-3.714844.3125-1.125.753907-2.085938 1.328125-2.882812.578125-.796876 1.265625-1.410157 2.066406-1.847657.800782-.433593 1.671876-.648437 2.609376-.648437.90625 0 1.769531.164062 2.585937.492187.816406.332031 1.53125.859375 2.144531 1.585938.609375.726562 1.09375 1.644531 1.460938 2.757812.367187 1.105469.546875 2.4375.546875 4 0 2.078125-.257813 3.742188-.78125 4.988281m1.042969 7.066407 3.917968-.359375c-.035156-.175782-.078125-.480469-.128906-.914063-.054688-.429687-.105469-.914062-.15625-1.453125-.054688-.535156-.097656-1.109375-.132812-1.714844-.035157-.605468-.054688-1.167968-.054688-1.6875v-28.691406h-3.757812v15.019532c-.558594-1.074219-1.453126-2-2.691407-2.777344-1.234375-.78125-2.6875-1.171875-4.359375-1.171875-1.429687 0-2.769531.261719-4.023437.78125-1.253907.519531-2.347657 1.289062-3.289063 2.3125-.941406 1.023437-1.691406 2.304687-2.25 3.84375-.554687 1.542969-.832031 3.320312-.832031 5.328125 0 1.628906.199219 3.164062.601563 4.601562.398437 1.4375 1.007812 2.699219 1.828124 3.792969.816407 1.089844 1.859376 1.949219 3.132813 2.570313 1.269531.625 2.777344.9375 4.515625.9375 1.117188 0 2.082031-.15625 2.902344-.46875.816406-.308594 1.511718-.691407 2.089844-1.144532.574218-.445312 1.035156-.921875 1.382812-1.425781s.609375-.945313.785156-1.328125zm31.757812-16.707031c-.488281-1.472657-1.203125-2.730469-2.140625-3.769532-.941406-1.039062-2.117187-1.84375-3.527344-2.414062-1.410156-.574219-3.023437-.859375-4.832031-.859375s-3.414062.285156-4.804688.859375c-1.394531.570312-2.566406 1.375-3.523437 2.414062-.960937 1.039063-1.683594 2.296875-2.167969 3.769532-.492187 1.472656-.734375 3.109374-.734375 4.910156 0 1.871094.289063 3.5625.863281 5.070312.574219 1.503906 1.367188 2.789063 2.375 3.84375 1.011719 1.058594 2.203126 1.871094 3.578126 2.441406 1.375.574219 2.847656.859376 4.414062.859376s3.039062-.285157 4.414062-.859376c1.375-.570312 2.570313-1.382812 3.578126-2.441406 1.011718-1.054687 1.800781-2.339844 2.375-3.84375.578124-1.507812.863281-3.199218.863281-5.070312 0-1.800782-.246094-3.4375-.730469-4.910156m-5.460938 11.5625c-1.199218 1.699218-2.882812 2.550781-5.039062 2.550781s-3.839844-.851563-5.039062-2.550781c-1.199219-1.695313-1.800782-3.949219-1.800782-6.753907 0-2.773437.589844-4.992187 1.773438-6.652343 1.183594-1.664063 2.871094-2.496094 5.066406-2.496094s3.882812.832031 5.066406 2.496094c1.183594 1.660156 1.777344 3.878906 1.777344 6.652343 0 2.804688-.601562 5.058594-1.804688 6.753907m12.769532 4.886718h3.867187v-10.96875c0-.757812.027344-1.523437.082031-2.285156.050782-.761719.160157-1.488281.335938-2.183594.382812-1.417968.949219-2.605468 1.699219-3.558594.746093-.953124 1.59375-1.429687 2.53125-1.429687 1.566406 0 2.402343.851563 2.507812 2.546875l3.394531-1.195312c-.035156-.761719-.191406-1.421876-.46875-1.972657-.28125-.554687-.628906-.996093-1.046874-1.328125-.417969-.328125-.878907-.570312-1.382813-.726562s-.984375-.234375-1.4375-.234375c-1.355469 0-2.542969.382812-3.550781 1.144531-1.007813.761719-1.863282 1.78125-2.558594 3.066406l-.523438-3.953125-3.917968.367188c.035156.171875.082031.476562.132812.910156.050782.433594.101563.925781.15625 1.480469.050782.554687.09375 1.125.128906 1.714844.035157.589843.050782 1.140624.050782 1.664062zm36.445312-33.730468c-.453125-.273438-1.15625-.527344-2.117187-.75-.957031-.226563-1.992188-.339844-3.105469-.339844-1.53125 0-2.910156.277344-4.128906.832031s-2.261719 1.503906-3.132813 2.859375c-.660156 1.003906-1.0625 2.101562-1.199219 3.296875-.140624 1.195313-.210937 2.3125-.210937 3.355469v1.660156h-4.125v2.597656h4.125v20.21875h3.917969v-20.21875h6.320312v-2.597656h-6.320312v-1.507812c0-.863282.035156-1.78125.105468-2.753907.066407-.96875.242188-1.84375.519532-2.625.28125-.777343.6875-1.425781 1.230468-1.945312.539063-.519531 1.296876-.78125 2.269532-.78125 1.007812 0 1.878906.175781 2.613281.519531.730469.347656 1.339844.710938 1.828125 1.09375zm0 0"/><path d="m647.011719 455.503906h35.050781c15.378906 0 27.847656-12.441406 27.847656-27.78125 0-15.34375-12.46875-27.78125-27.847656-27.78125h-35.050781zm0 0" fill="#006ab3"/></svg>
